<?xml version="1.0" encoding="UTF-8" standalone="no"?>
<svg
   version="1.0"
   width="3434pt"
   height="1600pt"
   viewBox="0 0 3434 1600"
   preserveAspectRatio="xMidYMid"
   id="svg26"
   sodipodi:docname="Logo.svg"
   xml:space="preserve"
   inkscape:version="1.2.1 (9c6d41e410, 2022-07-14)"
   xmlns:inkscape="http://www.inkscape.org/namespaces/inkscape"
   xmlns:sodipodi="http://sodipodi.sourceforge.net/DTD/sodipodi-0.dtd"
   xmlns="http://www.w3.org/2000/svg"
   xmlns:svg="http://www.w3.org/2000/svg"><defs
     id="defs30" /><sodipodi:namedview
     id="namedview28"
     pagecolor="#ffffff"
     bordercolor="#000000"
     borderopacity="0.25"
     inkscape:showpageshadow="2"
     inkscape:pageopacity="0.0"
     inkscape:pagecheckerboard="0"
     inkscape:deskcolor="#d1d1d1"
     inkscape:document-units="pt"
     showgrid="false"
     inkscape:zoom="0.18933742"
     inkscape:cx="2181.2909"
     inkscape:cy="1383.7729"
     inkscape:window-width="1366"
     inkscape:window-height="697"
     inkscape:window-x="-8"
     inkscape:window-y="-8"
     inkscape:window-maximized="1"
     inkscape:current-layer="svg26" /><rect
     style="fill:#2361d2;fill-opacity:1;stroke-width:0.784933"
     id="rect5851"
     width="3434.345"
     height="1750.8425"
     x="-3.9611831"
     y="-6.0614067e-05" /><g
     transform="matrix(0.1,0,0,-0.1,-15.844728,1481.865)"
     fill="#000000"
     stroke="none"
     id="g24"
     style="fill:#f1c435;fill-opacity:1"><path
       d="m 5470,9774 c -435,-26 -856,-178 -1197,-432 -113,-85 -286,-253 -372,-362 -291,-367 -441,-775 -458,-1240 -16,-458 95,-860 341,-1235 359,-547 938,-890 1611,-956 369,-36 790,50 1135,233 130,69 158,91 166,134 8,44 -2,66 -64,146 -80,102 -178,258 -252,401 -39,74 -79,142 -91,153 -33,30 -84,22 -163,-25 -160,-93 -331,-135 -556,-135 -166,0 -259,14 -400,60 -367,121 -668,430 -774,795 -56,194 -61,473 -12,664 97,376 411,706 792,834 142,48 264,64 439,58 213,-8 361,-49 528,-148 85,-50 126,-53 168,-13 16,15 29,32 29,38 0,18 140,266 203,361 33,50 82,117 108,151 70,88 78,120 44,175 -23,37 -222,145 -378,206 -240,92 -603,151 -847,137 z"
       id="path2"
       style="fill:#f1c435;fill-opacity:1" /><path
       d="m 8460,9759 c -323,-20 -646,-126 -941,-309 -516,-320 -870,-870 -965,-1500 -24,-156 -24,-453 0,-610 92,-616 418,-1132 929,-1473 357,-238 820,-361 1236,-328 746,60 1396,513 1717,1197 299,636 258,1419 -106,2024 -93,155 -191,282 -315,405 -417,418 -974,631 -1555,594 z m 265,-910 c 326,-40 637,-233 821,-510 450,-676 146,-1596 -611,-1844 -217,-71 -483,-71 -699,0 -103,34 -254,112 -338,175 -95,72 -234,224 -297,324 -230,370 -251,809 -57,1201 75,151 133,231 244,337 259,247 590,359 937,317 z"
       id="path4"
       style="fill:#f1c435;fill-opacity:1" /><path
       d="m 13025,9719 c -17,-4 -44,-22 -60,-39 l -30,-31 -5,-1212 -5,-1212 -920,1229 c -506,675 -931,1237 -944,1247 -50,40 -159,12 -181,-47 -6,-16 -10,-735 -10,-1983 V 5713 l 23,-34 c 40,-59 35,-59 472,-59 379,0 402,1 432,20 60,36 58,3 63,780 l 5,715 251,-335 c 138,-184 388,-520 557,-746 213,-285 316,-415 335,-423 20,-8 145,-11 436,-9 l 408,3 34,37 34,38 v 1974 1974 l -26,31 c -14,17 -42,35 -62,41 -46,12 -764,12 -807,-1 z"
       id="path6"
       style="fill:#f1c435;fill-opacity:1" /><path
       d="m 14245,9719 c -17,-4 -44,-22 -60,-39 l -30,-31 v -354 c 0,-343 1,-354 21,-382 40,-53 33,-53 542,-53 h 472 V 7324 5788 l 23,6 c 58,18 252,56 337,66 114,15 352,18 513,7 l 117,-8 v 1500 1501 h 475 475 l 38,34 37,34 3,346 c 3,380 1,394 -56,433 -26,17 -95,18 -1452,20 -809,1 -1438,-3 -1455,-8 z"
       id="path8"
       style="fill:#f1c435;fill-opacity:1" /><path
       d="m 17520,9717 c -19,-7 -44,-27 -57,-46 l -23,-34 2,-1973 3,-1974 33,-32 32,-33 1273,-3 c 1262,-2 1272,-2 1305,18 59,37 62,54 62,417 0,368 -2,382 -70,415 -32,17 -94,18 -842,18 h -808 v 130 130 h 485 c 528,0 519,-1 564,56 20,26 21,37 21,380 v 354 l -34,38 -34,37 -501,3 -501,3 v 619 620 h 726 c 654,0 729,2 754,16 60,36 60,39 60,417 0,342 0,344 -23,378 -13,19 -38,39 -57,46 -50,17 -2320,17 -2370,0 z"
       id="path10"
       style="fill:#f1c435;fill-opacity:1" /><path
       d="m 20444,9710 c -12,-4 -31,-21 -43,-36 l -21,-27 2,-1978 3,-1979 33,-32 32,-33 398,-3 c 264,-2 409,0 434,8 22,6 46,23 60,43 l 23,32 5,713 5,713 497,-666 c 360,-481 505,-668 525,-676 32,-12 97,-6 118,11 8,6 236,309 507,672 l 493,661 5,-714 c 5,-776 3,-743 63,-779 30,-19 54,-20 432,-20 379,0 402,1 432,20 68,41 63,-127 63,2042 0,1763 -2,1966 -16,1986 -40,57 -134,70 -183,25 -17,-16 -443,-579 -947,-1253 -504,-674 -919,-1224 -921,-1223 -2,1 -422,560 -933,1242 -511,682 -938,1244 -949,1250 -23,13 -87,13 -117,1 z"
       id="path12"
       style="fill:#f1c435;fill-opacity:1" /><path
       d="m 15630,5419 c -470,-53 -970,-306 -1282,-650 -765,-843 -752,-2138 31,-2943 179,-184 368,-321 586,-426 761,-369 1653,-220 2278,379 273,262 477,613 573,988 53,209 67,341 61,598 -5,239 -20,346 -77,547 -231,824 -934,1423 -1769,1508 -118,12 -292,11 -401,-1 z m 402,-914 c 409,-72 758,-372 902,-773 91,-255 92,-596 1,-837 -153,-408 -481,-691 -890,-771 -105,-20 -315,-20 -421,1 -473,91 -848,474 -945,965 -19,97 -17,347 4,453 85,424 379,774 772,916 159,58 404,77 577,46 z"
       id="path14"
       style="fill:#f1c435;fill-opacity:1" /><path
       d="m 27954,5409 c -16,-5 -41,-20 -55,-35 l -24,-26 -3,-1965 c -2,-1780 -1,-1968 14,-1998 33,-71 24,-70 467,-73 435,-3 444,-2 484,56 17,25 18,73 23,729 l 5,703 325,-422 c 179,-232 400,-521 492,-642 172,-226 279,-361 314,-396 19,-19 38,-20 492,-25 536,-6 518,-8 547,69 14,36 15,51 7,76 -6,16 -123,175 -260,353 -702,911 -1211,1580 -1925,2534 -866,1156 -810,1089 -903,1062 z"
       id="path16"
       style="fill:#f1c435;fill-opacity:1" /><path
       d="m 10932,5370 c -66,-41 -62,106 -62,-2032 0,-1830 1,-1945 18,-1977 9,-19 30,-44 45,-55 27,-20 44,-21 315,-24 158,-2 306,0 330,3 27,4 55,17 75,35 l 32,28 5,468 5,467 185,39 c 102,21 286,59 410,84 257,53 391,94 519,158 181,89 372,242 491,392 l 57,71 -5,214 c -5,238 11,415 54,621 27,130 89,330 133,435 l 29,67 -24,66 c -153,406 -511,747 -931,885 -214,70 -197,68 -958,72 -681,4 -690,3 -723,-17 z m 1428,-878 c 185,-62 350,-243 395,-433 19,-82 19,-246 0,-328 -46,-193 -201,-360 -395,-424 -37,-12 -197,-47 -647,-143 l -23,-4 v 680 681 l 303,-3 c 278,-4 307,-6 367,-26 z"
       id="path18"
       style="fill:#f1c435;fill-opacity:1" /><path
       d="m 18194,5381 c -11,-5 -33,-23 -47,-41 l -27,-32 v -490 -490 l 41,-112 c 210,-571 208,-1267 -5,-1824 l -36,-94 v -462 -463 l 23,-34 c 38,-57 64,-60 402,-57 323,3 337,5 372,57 16,24 18,68 23,486 l 5,460 195,42 c 107,23 197,40 200,37 3,-3 138,-238 300,-522 195,-341 305,-523 323,-536 28,-21 37,-21 605,-19 491,3 579,5 598,18 13,8 49,47 81,87 32,40 65,80 74,88 10,8 79,98 154,200 76,102 295,390 489,641 l 351,457 5,-703 c 5,-695 5,-704 26,-732 39,-53 39,-53 469,-53 384,0 401,1 433,20 66,41 62,-106 62,2035 0,2131 4,1997 -59,2029 -52,27 -106,21 -145,-16 -19,-18 -433,-564 -920,-1213 -916,-1222 -1655,-2190 -1671,-2190 -8,0 -376,632 -374,644 0,3 39,31 87,61 122,77 318,273 405,406 186,281 280,645 248,963 -38,375 -189,687 -458,941 -212,201 -447,325 -745,393 -89,20 -123,21 -778,23 -377,2 -694,-1 -706,-5 z m 1410,-889 c 191,-71 334,-223 392,-417 13,-43 18,-93 18,-180 0,-136 -14,-199 -71,-307 -61,-116 -176,-218 -305,-269 -29,-11 -188,-50 -353,-85 -165,-35 -310,-66 -322,-69 l -23,-5 v 680 681 l 303,-3 c 283,-3 306,-5 361,-26 z"
       id="path20"
       style="fill:#f1c435;fill-opacity:1" /><path
       d="m 23605,5376 c -16,-7 -39,-23 -50,-36 -20,-22 -20,-38 -23,-1984 -2,-1852 -1,-1963 15,-1995 10,-19 31,-44 46,-55 28,-20 40,-21 435,-21 383,0 409,1 435,19 15,10 33,28 40,40 9,16 13,204 17,739 l 5,719 495,-664 c 544,-728 530,-713 612,-689 37,12 70,53 541,684 l 502,671 5,-721 c 5,-713 5,-722 26,-750 38,-52 63,-54 484,-51 423,3 416,2 457,65 17,26 18,134 21,1983 2,1847 1,1957 -15,1990 -34,67 -135,90 -186,41 -12,-11 -436,-573 -942,-1250 -506,-676 -923,-1229 -927,-1228 -3,1 -420,556 -927,1232 -506,677 -934,1240 -952,1253 -36,25 -70,27 -114,8 z"
       id="path22"
       style="fill:#f1c435;fill-opacity:1" /></g><path
     style="fill:#f1c435;fill-opacity:1;stroke-width:2.80098"
     d="m 491.53827,919.6411 c -31.97137,-7.85056 -68.97155,-27.62919 -92.58546,-49.49204 -46.10084,-42.68232 -67.7784,-91.55157 -68.18301,-153.70982 -0.41358,-63.53731 26.21607,-121.14326 74.46784,-161.0907 20.49706,-16.96942 59.97522,-36.71837 87.29529,-43.66947 27.18729,-6.91732 71.40478,-6.32872 100.27639,1.33482 24.89403,6.60776 60.77989,24.37028 60.77989,30.08441 0,2.10501 -5.74565,12.21966 -12.76809,22.477 -7.02245,10.25735 -15.86676,24.76466 -19.65402,32.23847 -3.78729,7.47383 -8.60307,13.58877 -10.70176,13.58877 -2.09869,0 -11.21566,-3.46621 -20.25992,-7.70269 -15.07515,-7.06145 -19.24226,-7.7027 -50.05585,-7.7027 -32.39594,0 -34.30133,0.33717 -52.67558,9.3213 -24.5047,11.98163 -46.22785,33.64002 -58.26537,58.0917 -7.99731,16.24483 -9.43431,22.40859 -10.40649,44.63675 -1.84209,42.11799 9.3504,70.28214 38.92316,97.94401 35.02083,32.75787 94.28253,41.35507 136.74482,19.83779 16.03711,-8.12662 14.93951,-8.86253 33.19469,22.25655 6.32602,10.78377 14.65907,23.8291 18.51792,28.98962 3.85885,5.16053 6.31408,11.21216 5.45608,13.44806 -2.39299,6.23604 -38.21602,23.1418 -61.83995,29.18379 -27.22977,6.96419 -69.74721,6.93582 -98.26058,-0.0655 z"
     id="path1289" /><path
     style="fill:#f1c435;fill-opacity:1;stroke-width:2.80098"
     d="M 817.38083,922.51255 C 714.51578,906.16679 639.58432,819.06728 639.58432,715.84388 c 0,-35.43715 6.10611,-60.94049 22.96713,-95.92672 12.41331,-25.75732 17.22156,-32.40019 39.78097,-54.95959 21.81105,-21.81105 29.63986,-27.59109 52.18116,-38.5256 32.71455,-15.86942 55.41488,-21.37159 88.39388,-21.42522 117.07935,-0.19038 208.28024,99.6173 202.04074,221.10752 -5.5114,107.31491 -87.04542,190.24949 -194.00929,197.34198 -10.71818,0.71069 -25.81928,0.28604 -33.55808,-0.9437 z m 75.29573,-97.8315 c 73.31422,-36.09248 91.09383,-133.61038 35.45857,-194.48421 -55.77742,-61.02942 -152.43487,-46.61701 -190.29015,28.3738 -23.76511,47.07846 -16.01097,101.41383 19.88985,139.3737 27.24945,28.81227 49.21643,37.84167 89.34278,36.72391 23.8662,-0.66484 28.90365,-1.76815 45.59895,-9.9872 z"
     id="path1291" /><path
     style="fill:#f1c435;fill-opacity:1;stroke-width:2.80098"
     d="m 1083.5394,917.15901 -8.4029,-1.90489 -0.7189,-199.18407 c -0.6275,-173.86891 -0.187,-199.62541 3.4656,-202.65676 2.3014,-1.90999 5.7997,-2.85285 7.774,-2.09524 1.9743,0.75761 45.1604,56.9305 95.9691,124.82866 50.8088,67.89815 93.325,123.5089 94.4804,123.57945 1.1554,0.0705 2.1007,-54.65656 2.1007,-121.61577 0,-117.49808 0.189,-121.84516 5.4178,-124.64356 7.8337,-4.19245 82.1973,-3.79537 86.4543,0.46165 2.551,2.55097 3.3611,51.17995 3.3611,201.7398 v 198.37861 l -7.1847,2.73166 c -8.0234,3.05049 -60.019,3.71595 -73.8715,0.94544 -7.7501,-1.55003 -16.2229,-11.53258 -64.0724,-75.48951 -30.3277,-40.53681 -56.026,-73.7649 -57.1073,-73.84021 -1.0813,-0.0753 -2.3417,31.9435 -2.801,71.1529 -0.6297,53.76501 -1.7282,72.18368 -4.4683,74.92617 -4.0181,4.02146 -65.4509,6.07365 -80.396,2.68567 z"
     id="path1293" /><path
     style="fill:#f1c435;fill-opacity:1;stroke-width:2.80098"
     d="M 1505.0866,747.57654 V 594.59666 h -48.4569 c -33.954,0 -49.4628,-1.00597 -51.8181,-3.36117 -4.6569,-4.65699 -4.6569,-72.65002 0,-77.30701 2.5268,-2.52677 38.9826,-3.36118 146.8513,-3.36118 126.711,0 144.0049,0.5147 147.8917,4.40154 3.5215,3.52148 4.4016,11.24999 4.4016,38.65351 0,22.90578 -1.1134,35.36538 -3.3612,37.61314 -2.3552,2.3552 -17.864,3.36117 -51.8181,3.36117 H 1600.32 v 149.54089 149.54088 l -39.9139,1.49111 c -21.9528,0.82006 -43.3803,2.3676 -47.6167,3.43898 l -7.7027,1.94788 z"
     id="path1295" /><path
     style="fill:#f1c435;fill-opacity:1;stroke-width:2.80098"
     d="m 1747.4068,917.5133 c -6.1425,-0.67181 -12.7599,-2.54236 -14.7051,-4.15673 -2.7865,-2.3126 -3.5367,-44.41019 -3.5367,-198.46071 0,-174.0158 0.4842,-196.00969 4.4015,-199.92702 3.8608,-3.86076 18.7617,-4.40154 121.2824,-4.40154 87.1727,0 117.7352,0.85433 120.242,3.36118 2.2746,2.27455 3.3612,15.30766 3.3612,40.31452 0,31.11273 -0.7003,37.22205 -4.4306,38.6535 -2.4367,0.9351 -37.0989,1.70016 -77.0269,1.70016 h -72.5964 v 63.02203 63.02202 h 49.9836 c 62.5053,0 59.2546,-2.32603 59.2546,42.40013 0,21.35046 -1.1765,33.73493 -3.5012,36.85564 -3.0126,4.04417 -10.5369,4.80292 -53.9189,5.43707 l -50.4176,0.73701 v 14.0049 14.0049 l 82.6289,0.71917 c 73.6944,0.6414 83.0075,1.2293 86.1301,5.43707 5.1599,6.95286 4.7799,65.24925 -0.472,72.43605 -3.8157,5.22128 -8.5682,5.44947 -119.7419,5.7496 -63.6727,0.17198 -120.7943,-0.23725 -126.937,-0.90895 z"
     id="path1297" /><path
     style="fill:#f1c435;fill-opacity:1;stroke-width:2.80098"
     d="m 2031.6707,916.02839 -7.0024,-3.68561 -0.7191,-197.97817 c -0.718,-197.72244 -0.7115,-197.98218 5.0808,-201.08211 4.3651,-2.33613 6.8546,-2.22852 10.0639,0.43499 2.3453,1.94641 45.9767,58.89763 96.9587,126.55828 77.184,102.43464 93.2305,122.2863 95.8978,118.63849 47.3078,-64.69729 185.1605,-245.60132 187.9769,-246.68209 11.3928,-4.37185 11.5456,-3.12087 13.7563,112.65003 2.4203,126.74284 -0.026,285.89694 -4.4596,290.33211 -4.478,4.47799 -82.6444,3.81343 -87.2048,-0.74139 -2.7463,-2.74282 -3.8656,-21.16049 -4.5539,-74.92617 -0.5019,-39.20917 -1.7624,-71.21207 -2.801,-71.11756 -1.0386,0.0945 -24.3302,30.42424 -51.759,67.39936 -35.5971,47.98632 -51.2297,66.96763 -54.6191,66.31948 -2.6116,-0.49942 -27.4364,-31.00823 -55.1661,-67.79735 l -50.4176,-66.88932 -1.7443,30.50852 c -0.9595,16.77968 -1.9048,49.65584 -2.1008,73.05813 -0.2566,30.63231 -1.3369,43.18431 -3.8575,44.81566 -6.3494,4.10937 -75.581,4.26283 -83.3292,0.18487 z"
     id="path1299" /><path
     style="fill:#f1c435;fill-opacity:1;stroke-width:2.80098"
     d="m 1094.8144,1351.7444 c -7.6636,-0.6829 -15.5413,-2.576 -17.5061,-4.2066 -5.0554,-4.1956 -5.2616,-394.40716 -0.2112,-399.45761 5.3854,-5.38534 136.3004,-4.61465 157.5788,0.92766 39.1623,10.20052 78.9066,42.10942 95.8323,76.93955 l 8.8473,18.2063 -7.9695,23.8084 c -9.2428,27.6125 -13.9649,58.1791 -13.9649,90.3968 v 22.7679 l -16.2765,15.8285 c -22.3023,21.6882 -48.937,34.1369 -92.9617,43.4487 -19.2567,4.073 -39.7389,8.5829 -45.5159,10.022 l -10.5037,2.6166 v 45.7652 c 0,35.5718 -0.8639,46.4822 -3.8789,48.9845 -4.4369,3.6822 -32.8956,5.7858 -53.47,3.9521 z m 104.4744,-194.3375 c 28.1741,-6.487 43.6344,-15.0939 53.8242,-29.9645 9.7118,-14.1731 11.4156,-48.0112 3.2201,-63.9507 -13.7792,-26.7992 -30.5324,-34.7433 -73.269,-34.7433 h -30.9008 v 68.982 68.9819 l 10.9821,-1.7561 c 6.04,-0.9658 22.3046,-4.363 36.1434,-7.5493 z"
     id="path1301" /><path
     style="fill:#f1c435;fill-opacity:1;stroke-width:2.80098"
     d="m 1521.1077,1354.8747 c -67.2898,-16.3022 -123.7103,-70.2639 -147.6986,-141.2618 -9.5189,-28.1727 -10.9789,-80.8967 -3.1026,-112.043 10.158,-40.1694 31.9463,-79.1309 58.19,-104.05431 23.3558,-22.18079 66.9676,-45.14661 100.5254,-52.93638 21.0099,-4.87702 61.4261,-4.19438 83.9025,1.41712 59.0688,14.74721 107.1492,53.81464 134.5913,109.36137 17.6925,35.8119 22.0264,54.7519 22.1125,96.6337 0.083,40.4972 -5.1065,61.6262 -24.4225,99.4348 -8.8017,17.2282 -17.3202,28.2544 -36.8524,47.701 -29.1406,29.0131 -57.1258,45.4548 -92.9731,54.623 -25.6584,6.5623 -69.6609,7.0872 -94.2725,1.1245 z m 94.0497,-92.9681 c 44.5293,-20.8378 69.4274,-60.1599 69.4124,-109.6244 -0.014,-45.7834 -17.1101,-79.8955 -52.1107,-103.9765 -32.411,-22.2994 -79.7633,-25.7952 -114.9265,-8.4844 -59.5712,29.3268 -85.453,104.7382 -56.2141,163.7896 15.5034,31.3109 40.1765,53.2254 71.7779,63.7528 23.7055,7.897 58.4633,5.5855 82.061,-5.4571 z"
     id="path1303" /><path
     style="fill:#f1c435;fill-opacity:1;stroke-width:2.80098"
     d="m 1811.7938,1351.7137 c -15.0398,-2.4136 -15.4054,-3.6265 -15.4054,-51.1228 0,-38.9373 0.7629,-46.2251 6.6513,-63.5373 10.9666,-32.2433 13.8414,-55.2137 12.2574,-97.9417 -1.205,-32.5015 -2.7683,-43.1059 -9.4567,-64.1474 -7.265,-22.8552 -8.0921,-29.5841 -8.8598,-72.0716 -0.5391,-29.84036 0.2528,-48.91701 2.1801,-52.51829 2.9151,-5.44683 5.6673,-5.6556 74.5596,-5.6556 69.016,0 72.2724,0.24825 92.5518,7.05584 62.5096,20.98377 104.6123,77.32695 104.6123,139.99555 0,44.7695 -23.3859,91.7302 -58.8747,118.2251 -7.673,5.7284 -13.9508,11.6078 -13.9508,13.0655 0,4.8621 34.968,63.3327 37.8891,63.3552 2.9734,0.022 34.3246,-40.6361 177.0842,-229.658 70.2407,-93.00288 84.6581,-110.6387 90.448,-110.6387 6.0156,0 7.1276,1.59619 8.781,12.60441 2.4427,16.26371 2.4084,358.26669 -0.038,376.73159 l -1.8553,14.0049 -43.1996,0.7758 c -23.8826,0.4289 -44.3576,-0.3823 -45.7894,-1.814 -1.4244,-1.4245 -3.4121,-35.0331 -4.4171,-74.686 l -1.8271,-72.096 -52.2077,68.3081 c -28.7142,37.5696 -55.2927,71.1704 -59.0631,74.6686 -6.7314,6.2454 -7.9089,6.3468 -65.1295,5.602 l -58.2741,-0.7585 -30.1589,-51.8181 c -16.5875,-28.4999 -31.8748,-52.1698 -33.9719,-52.5997 -2.0971,-0.4298 -11.3503,0.9271 -20.5626,3.0155 l -16.7497,3.7971 -1.6533,46.8146 c -0.9093,25.748 -2.7999,47.8976 -4.2014,49.2213 -3.032,2.8636 -49.3618,5.7494 -61.3688,3.8226 z m 105.1588,-192.6247 c 16.8295,-3.7991 34.0855,-8.7283 38.3467,-10.9539 43.4904,-22.715 41.7001,-91.9249 -2.9369,-113.5333 -10.0552,-4.8676 -17.3677,-5.8534 -43.4186,-5.8534 h -31.3269 v 68.624 c 0,60.2961 0.5301,68.6239 4.3682,68.6239 2.4025,0 18.1379,-3.1083 34.9675,-6.9073 z"
     id="path1305" /><path
     style="fill:#f1c435;fill-opacity:1;stroke-width:2.80098"
     d="m 2668.4017,1351.7843 c -4.892,-0.686 -10.2272,-2.8529 -11.8559,-4.8154 -1.8681,-2.2509 -3.2377,-30.3692 -3.7099,-76.1647 l -0.7484,-72.5966 -50.9691,67.6664 c -28.0329,37.2166 -52.3759,68.536 -54.0953,69.5986 -4.9736,3.0739 -11.1536,-4.1074 -62.3063,-72.4013 l -48.3047,-64.4913 -1.4005,72.6392 c -0.7702,39.9516 -2.4202,74.2148 -3.6665,76.1405 -3.1346,4.8432 -83.375,4.9707 -88.2055,0.1401 -2.5509,-2.5509 -3.3612,-51.1227 -3.3612,-201.4817 0,-195.36381 0.078,-198.14523 5.5768,-199.89064 3.0674,-0.97352 6.8765,-0.96691 8.4647,0.0147 1.5883,0.9816 44.6762,57.18364 95.7511,124.89354 51.0747,67.7099 93.9386,122.7503 95.2529,122.3123 1.3145,-0.4382 43.6327,-55.5292 94.0405,-122.4246 50.4078,-66.8954 93.7506,-122.89966 96.3174,-124.45398 3.3024,-1.99971 5.9641,-1.74949 9.1032,0.85573 3.9713,3.29586 4.4318,24.26992 4.3934,200.10755 -0.023,108.0342 -0.9689,197.8514 -2.1008,199.5937 -2.1729,3.3451 -62.1975,6.9984 -78.1759,4.7579 z"
     id="path1307" /><path
     style="fill:#f1c435;fill-opacity:1;stroke-width:2.80098"
     d="m 2775.7974,1346.1926 c -1.0271,-1.027 -1.8674,-91.6938 -1.8674,-201.4817 0,-196.85535 0.077,-199.63885 5.577,-201.38442 3.0673,-0.97352 6.7836,-1.02421 8.2585,-0.11266 1.475,0.91156 43.3232,55.50695 92.9959,121.32308 49.6728,65.8162 114.4351,151.1768 143.9163,189.6903 62.7724,82.0042 63.6247,83.2445 61.3254,89.2366 -1.5422,4.019 -7.9299,4.5961 -50.8727,4.5961 -38.4781,0 -49.782,-0.8398 -52.2186,-3.8796 -1.7104,-2.1339 -27.6884,-35.712 -57.7289,-74.6181 l -54.619,-70.7382 -1.4006,71.1167 c -0.7702,39.1142 -2.4202,72.6923 -3.6665,74.618 -1.6499,2.5493 -13.8985,3.5012 -45.0491,3.5012 -23.5306,0 -43.6232,-0.8403 -44.6503,-1.8673 z"
     id="path1309" /><path
     style="fill:#f1c435;fill-opacity:1;stroke-width:2.80098"
     d="m 491.13244,917.95679 c -8.47296,-2.19216 -28.64001,-10.56572 -44.81566,-18.60789 -25.07073,-12.46461 -32.92325,-18.15706 -53.21859,-38.57931 -26.35227,-26.51706 -39.01299,-45.85392 -49.19785,-75.14049 -29.17025,-83.87902 -1.40342,-180.52972 66.53684,-231.60134 65.70576,-49.39191 146.23628,-59.52424 214.13784,-26.9428 12.92848,6.20352 24.19662,13.07805 25.04033,15.27673 0.84371,2.19869 -3.98439,12.64524 -10.72912,23.21458 -6.74473,10.56933 -15.25094,24.57385 -18.90272,31.12113 -3.65175,6.54729 -8.37957,11.90416 -10.50624,11.90416 -2.12667,0 -10.40256,-2.83599 -18.39084,-6.3022 -12.69186,-5.50716 -19.29441,-6.30221 -52.33735,-6.30221 -36.68792,0 -38.27167,0.24931 -53.2186,8.37743 -21.37534,11.62387 -47.65849,38.46959 -57.61291,58.84607 -7.19499,14.72797 -8.32534,20.45459 -9.14223,46.31639 -0.77583,24.56228 0.0892,32.54236 5.15906,47.59194 11.00452,32.66641 36.39559,59.17956 69.99902,73.09241 12.87971,5.33259 20.68632,6.40135 47.61664,6.51911 29.42745,0.12857 33.62889,-0.52325 48.61457,-7.54318 9.02182,-4.22622 17.37817,-7.08152 18.56965,-6.34514 1.19148,0.73638 11.33074,16.01987 22.53169,33.9633 l 20.36533,32.62442 -6.72373,5.14493 c -8.41139,6.43628 -44.58436,21.05005 -61.34283,24.7823 -18.43318,4.10523 -74.41542,3.25104 -92.4323,-1.41034 z"
     id="path4597" /><path
     style="fill:#f1c435;fill-opacity:1;stroke-width:2.80098"
     d="m 491.13244,917.8502 c -53.06512,-14.09634 -103.96117,-52.42986 -131.67651,-99.17523 -46.76581,-78.87634 -31.78007,-186.22254 34.9965,-250.6876 20.839,-20.11765 51.56057,-38.20619 84.8534,-49.96082 21.96436,-7.75491 27.82459,-8.63732 58.04276,-8.73989 19.43838,-0.066 40.10788,1.5 49.01713,3.71368 17.71543,4.40173 59.85804,23.25828 62.86932,28.13062 2.03975,3.30042 -29.50112,59.06024 -36.86461,65.17138 -2.98322,2.47584 -7.54569,1.66067 -19.84109,-3.545 -14.22806,-6.02393 -20.08532,-6.76019 -53.78026,-6.76019 -36.65472,0 -38.28519,0.25595 -53.2186,8.35404 -20.80206,11.28056 -47.79442,38.95811 -57.7324,59.19792 -7.60986,15.49831 -8.0906,18.55785 -8.0906,51.48964 0,33.64203 0.35383,35.75928 9.04128,54.10103 15.94492,33.66445 47.91509,58.69416 85.1763,66.68525 22.12627,4.74525 56.60487,1.71064 76.62581,-6.74414 9.23426,-3.89958 17.59061,-6.59511 18.56967,-5.99001 0.97905,0.6051 10.94448,15.78117 22.14543,33.7246 l 20.36533,32.62442 -6.72373,5.20246 c -7.92105,6.12888 -44.31695,20.69982 -61.73892,24.71693 -18.13985,4.18262 -74.06169,3.26569 -92.03621,-1.50909 z"
     id="path4599" /><path
     style="fill:#fdca19;fill-opacity:1;stroke-width:2.80098"
     d=""
     id="path4601" /><path
     style="fill:#f1c435;fill-opacity:1;stroke-width:2.80098"
     d="m 491.13244,917.8502 c -51.64797,-13.71986 -104.29769,-52.77648 -131.14403,-97.28521 -34.07913,-56.50008 -36.6748,-137.39798 -6.33683,-197.49716 18.78434,-37.21157 44.87231,-64.12793 83.60553,-86.26029 35.69139,-20.39426 60.42968,-27.17193 100.09148,-27.42256 19.77648,-0.12497 39.9529,1.36318 49.01713,3.61536 17.70465,4.39906 59.85731,23.25712 62.86551,28.12448 2.06502,3.34127 -29.05422,58.69865 -36.44626,64.83348 -3.1553,2.61868 -7.73711,1.91234 -21.51633,-3.31698 -15.15919,-5.75302 -22.39111,-6.64417 -53.92005,-6.64417 -35.17607,0 -36.93467,0.28539 -51.78107,8.40294 -20.83654,11.39278 -47.22819,38.42323 -57.45711,58.84785 -7.99583,15.9657 -8.40293,18.47768 -8.40293,51.84971 0,33.88857 0.30617,35.69304 9.07986,53.51494 16.49986,33.51599 47.64731,58.17777 84.4346,66.85326 22.08192,5.20753 56.6335,2.35465 77.32893,-6.38496 9.23426,-3.89958 17.67859,-6.54074 18.76515,-5.86917 1.08658,0.67153 11.0514,15.84807 22.14405,33.72563 l 20.16846,32.50465 -6.72235,5.2014 c -7.91986,6.12798 -44.31679,20.69906 -61.73753,24.71589 -18.13985,4.18262 -74.06169,3.26569 -92.03621,-1.50909 z"
     id="path4603" /><path
     style="fill:#f1c435;fill-opacity:1;stroke-width:2.80098"
     d="m 491.13244,917.86623 c -38.15737,-10.09647 -81.81403,-37.00415 -108.28924,-66.7438 -74.88879,-84.12271 -65.22034,-220.68497 20.63822,-291.50511 64.6132,-53.29599 149.5297,-66.21294 219.48223,-33.38625 12.26498,5.75561 23.68614,12.13496 25.38033,14.17635 2.34852,2.82978 -1.03347,10.66242 -14.23482,32.96765 -9.52335,16.09083 -19.11923,30.75328 -21.32419,32.58323 -3.1553,2.61868 -7.73711,1.91234 -21.51633,-3.31698 -15.02864,-5.70349 -22.46434,-6.64417 -52.51956,-6.64417 -32.78081,0 -36.04302,0.50617 -51.18585,7.94197 -20.56963,10.10061 -48.76604,38.3796 -59.5929,59.76746 -7.83672,15.48099 -8.26145,18.11979 -8.26213,51.33217 -6.6e-4,32.21505 0.60549,36.30593 7.58705,51.20532 10.07279,21.49639 35.19996,47.4795 55.93599,57.84141 33.1097,16.5451 72.54675,18.31614 106.09701,4.76461 9.68276,-3.91106 18.58565,-6.50494 19.78419,-5.76419 1.19856,0.74074 11.25498,15.97389 22.34763,33.85145 l 20.16846,32.50465 -6.72235,5.15258 c -8.06094,6.17859 -37.72919,18.55615 -57.13997,23.83873 -18.68866,5.08605 -76.55232,4.74648 -96.63377,-0.56708 z"
     id="path4605" /><path
     style="fill:#f1c435;fill-opacity:1;stroke-width:2.80098"
     d="M 492.03648,918.31847 C 471.30043,913.29041 432.05279,893.78378 412.6815,878.87789 344.74979,826.60566 316.95895,742.41045 340.08771,658.94753 358.99197,590.7292 408.70906,541.33616 484.12999,515.84411 c 27.67421,-9.35382 82.99063,-9.48759 112.03916,-0.27097 26.99244,8.56426 53.32281,23.19208 52.82979,29.34955 -0.45054,5.62656 -30.65876,56.4252 -36.37556,61.16972 -2.93904,2.43919 -7.85866,1.69297 -20.83697,-3.1606 -14.23331,-5.3229 -22.75367,-6.38422 -52.51956,-6.54195 -31.91541,-0.16912 -36.92791,0.48938 -49.27087,6.47275 -19.71927,9.55911 -49.43599,38.70802 -60.76075,59.59974 -9.38201,17.30779 -9.52103,18.07522 -9.52437,52.5764 -0.003,33.03352 0.46062,35.96202 8.20671,51.81811 9.52974,19.50717 36.7677,48.2146 54.17031,57.09274 32.20429,16.4294 74.19443,18.24833 107.81066,4.6701 13.74718,-5.55271 18.11048,-6.30382 20.81626,-3.58329 6.4935,6.52889 40.06951,62.26909 39.19205,65.06352 -1.45514,4.63405 -41.30738,23.14754 -59.91531,27.83383 -21.04531,5.30012 -76.78087,5.51905 -97.95506,0.38471 z"
     id="path4607" /><path
     style="fill:#f1c435;fill-opacity:1;stroke-width:2.80098"
     d="m 800.6406,917.98247 c -26.14395,-6.58611 -65.0778,-27.01869 -87.33156,-45.83189 -12.87862,-10.88749 -25.63816,-25.31869 -35.48956,-40.13911 -25.96913,-39.06795 -35.76377,-71.66592 -35.66643,-118.70315 0.0741,-35.82706 4.82387,-55.25711 22.71172,-92.90816 11.97777,-25.21128 16.79354,-31.91897 38.50088,-53.62631 40.19965,-40.19964 84.44193,-59.20671 137.80293,-59.20195 96.16207,0.009 172.18142,60.73422 196.47222,156.94558 7.7552,30.71667 6.4494,83.58329 -2.7699,112.14281 -21.674,67.14195 -71.1809,116.01763 -138.99702,137.2246 -25.80405,8.06925 -71.63895,10.04137 -95.23328,4.09758 z m 91.57013,-91.73161 c 46.37557,-22.77367 72.06585,-68.26234 68.74185,-121.71824 -2.73525,-43.98722 -29.39993,-83.82219 -68.50913,-102.34731 -17.78955,-8.42649 -20.90962,-8.98914 -49.8471,-8.98914 -29.3139,0 -31.8237,0.46968 -49.80037,9.31956 -80.49606,39.6281 -93.33473,151.57791 -23.87805,208.21048 24.85912,20.26931 39.61357,24.81009 77.9388,23.9863 25.7913,-0.55437 31.3722,-1.59561 45.354,-8.46165 z"
     id="path4609" /><path
     style="fill:#fdca19;fill-opacity:1;stroke-width:2.80098"
     d=""
     id="path4611" /></svg>
